<svg width="100%" height="100%" viewBox="0 0 1024 1024" version="1.1" xmlns="http://www.w3.org/2000/svg" xmlns:xlink="http://www.w3.org/1999/xlink" xml:space="preserve" xmlns:serif="http://www.serif.com/" style="fill-rule:evenodd;clip-rule:evenodd;stroke-linejoin:round;stroke-miterlimit:2;"><path d="M889.647,134.353l0,-62.941l-188.823,-0l-0,62.941l-62.942,-0l0,377.647l-62.941,0l0,62.941l-62.941,0l-0,-440.588l-62.941,-0l-0,-62.941l-314.706,-0l-0,62.941l125.882,-0l0,62.941l-62.941,0l0,62.941l-62.941,0l-0,-125.882l-62.941,-0l-0,692.353l62.941,-0l-0,62.941l62.941,0l0,62.941l377.647,0l0,-62.941l62.941,0l0,-62.941l62.942,-0l-0,-62.941l62.941,-0l-0,-62.941l62.941,-0l-0,-62.942l62.941,0l0,-62.941l62.941,0l0,-440.588l-62.941,-0Z" style="fill:url(#_Linear1);fill-rule:nonzero;"/><defs><linearGradient id="_Linear1" x1="0" y1="0" x2="1" y2="0" gradientUnits="userSpaceOnUse" gradientTransform="matrix(882.034,0,0,882.034,71.4118,511.571)"><stop offset="0" style="stop-color:#c16ed9;stop-opacity:1"/><stop offset="1" style="stop-color:#5700c4;stop-opacity:1"/></linearGradient></defs></svg>