<svg width="100%" height="100%" viewBox="0 0 656 414" preserveAspectRatio="none" version="1.1" xmlns="http://www.w3.org/2000/svg" xmlns:xlink="http://www.w3.org/1999/xlink" xml:space="preserve" xmlns:serif="http://www.serif.com/" style="fill-rule:evenodd;clip-rule:evenodd;stroke-linejoin:round;stroke-miterlimit:2;">
    <g transform="matrix(1,0,0,1,-272.165,-243.176)">
        <path d="M414.293,519.335C413.093,528.175 407.083,536.155 399.353,541.365C397.512,542.61 395.568,543.697 393.543,544.615C391.317,545.62 389.021,546.462 386.673,547.135C380.978,548.712 375.126,549.655 369.223,549.945L369.213,549.945C364.283,550.265 359.323,550.305 354.413,550.335L330.233,550.485C327.343,550.505 324.463,550.525 321.573,550.545C312.943,550.595 304.033,550.595 296.063,547.285C295.944,547.241 295.827,547.191 295.713,547.135C287.883,543.755 281.213,536.325 281.403,527.825C281.48,524.831 282.327,521.907 283.863,519.335C284.88,517.608 286.102,516.009 287.503,514.575C291.843,510.075 297.863,506.545 303.503,503.705C309.853,500.515 316.773,496.675 321.383,491.505C321.943,490.875 322.463,490.235 322.943,489.575C324.333,487.709 325.38,485.609 326.033,483.375C326.32,482.365 326.515,481.331 326.613,480.285C327.253,473.685 324.043,467.615 319.953,462.185C319.553,461.645 319.133,461.105 318.703,460.565C317.783,459.415 316.833,458.285 315.893,457.205C315.493,456.745 315.093,456.275 314.683,455.805C313.563,454.505 312.433,453.175 311.353,451.815C310.853,451.175 310.363,450.535 309.883,449.885C307.918,447.325 306.309,444.509 305.103,441.515C304.247,439.325 303.77,437.005 303.693,434.655C303.473,426.165 312.963,417.615 320.143,421.625C322.863,421.365 325.593,421.095 328.313,420.815C328.953,420.755 329.583,420.685 330.223,420.625C330.383,420.605 330.543,420.595 330.703,420.575C335.023,420.145 339.323,419.715 343.633,419.275L343.643,419.275C344.613,419.195 345.563,419.095 346.513,418.995L346.523,418.995C353.433,418.305 360.337,417.615 367.233,416.925C367.873,416.865 368.513,416.795 369.153,416.735C370.573,416.585 371.983,416.445 373.403,416.305C377.383,415.915 382.063,415.765 384.653,418.825C387.473,422.165 386.013,427.445 383.223,430.815C380.433,434.175 376.563,436.555 373.943,440.035C371.826,442.902 370.595,446.327 370.403,449.885C370.363,450.515 370.343,451.165 370.363,451.815C370.378,453.153 370.502,454.488 370.733,455.805C371.014,457.425 371.436,459.018 371.993,460.565C372.972,463.328 374.329,465.943 376.023,468.335C381.903,476.575 390.613,482.255 398.343,488.785C398.653,489.045 398.953,489.305 399.253,489.575C399.983,490.195 400.693,490.845 401.403,491.505C407.903,497.575 413.463,504.965 414.383,513.685C414.413,513.975 414.443,514.275 414.453,514.575C414.566,516.163 414.512,517.758 414.293,519.335Z" style="fill:rgb(242,242,242);fill-rule:nonzero;"/>
    </g>
    <g transform="matrix(1,0,0,1,-272.165,-243.176)">
        <path d="M349.516,369.119C351.186,367.079 352.846,365.019 354.516,362.969C352.501,357.962 349.677,353.321 346.158,349.23C345.514,348.505 344.59,348.09 343.62,348.09C341.909,348.09 340.451,349.385 340.25,351.085C338.791,361.846 330.867,372.151 329.486,383.369C329.093,386.573 329.259,389.821 329.976,392.969L329.976,392.973C321.574,374.682 318.288,354.45 320.471,334.44C322.869,313.318 331.186,293.298 344.46,276.694C349.867,273.743 354.24,269.203 356.986,263.689C357.359,262.928 357.7,262.146 358,261.348C358.117,261.028 358.177,260.691 358.177,260.351C358.177,258.774 356.888,257.473 355.311,257.459C353.374,257.475 351.438,257.361 349.516,257.119C350.543,255.865 353.049,252.783 354.936,250.462C355.54,249.737 355.87,248.824 355.87,247.881C355.87,246.493 355.153,245.199 353.977,244.462L353.936,244.439C349.326,241.739 342.966,243.609 339.636,247.779C336.296,251.949 335.666,257.799 336.826,263.009C337.967,267.442 339.854,271.649 342.406,275.449L342.41,275.455C342.157,275.772 341.892,276.081 341.642,276.402C334.756,285.256 329.203,295.071 325.162,305.535C325.002,305.949 324.86,306.369 324.704,306.785L324.706,306.759L325.346,298.419C329.673,290.708 330.255,281.43 326.926,273.239C324.215,266.697 319.127,261.189 314.654,255.534C309.291,248.753 298.308,251.746 297.363,260.34C297.354,260.423 297.345,260.506 297.336,260.589C301.087,262.699 304.373,265.546 306.996,268.959C303.756,269.459 300.506,269.969 297.266,270.469C297.503,272.86 297.921,275.23 298.516,277.559C302.119,291.129 311.409,302.505 323.985,308.748C320.622,318.255 318.519,328.161 317.73,338.214C317.276,344.142 317.302,350.097 317.808,356.02C317.795,355.95 317.79,355.879 317.776,355.808C316.497,349.222 312.981,343.275 307.826,338.978C299.777,332.366 288.235,330.145 279.842,324.517C279.065,324.005 278.155,323.732 277.225,323.732C274.615,323.732 272.467,325.88 272.467,328.49C272.467,328.66 272.476,328.83 272.494,329C272.566,329.621 272.65,330.24 272.746,330.858C277.981,332.988 282.556,336.475 285.996,340.958C282.756,341.458 279.506,341.968 276.266,342.468C276.196,342.478 276.136,342.488 276.066,342.498C278.17,347.522 281.124,352.147 284.796,356.168C293.962,366.004 306.793,371.633 320.236,371.718C320.241,371.719 320.245,371.718 320.25,371.718C322.655,382.178 326.5,392.253 331.676,401.655C334.37,406.548 337.419,411.238 340.799,415.685L341.336,417.208C341.456,417.098 341.586,416.988 341.706,416.879L341.722,416.864C344.712,420.706 347.947,424.35 351.408,427.773C352.502,428.851 354.186,427.166 353.093,426.088C349.652,422.687 346.44,419.063 343.476,415.239C349.545,409.255 353.945,401.787 356.236,393.578C353.654,393.741 351.061,393.586 348.516,393.118C350.586,390.578 352.656,388.018 354.726,385.478C354.773,385.431 354.816,385.381 354.856,385.328C355.906,384.028 356.966,382.738 358.016,381.438C358.026,380.938 358.026,380.448 358.016,379.948C357.95,376.462 357.494,372.994 356.656,369.608C354.266,369.716 351.87,369.551 349.516,369.119ZM318.286,361.929C318.296,361.539 318.296,361.149 318.286,360.749C318.285,360.638 318.27,360.527 318.267,360.416C318.353,361.107 318.436,361.798 318.535,362.488L318.526,362.469L318.286,361.929Z" style="fill:rgb(242,242,242);fill-rule:nonzero;"/>
    </g>
    <path d="M225.203,240.492L213.622,291.447L206.222,299.553L200.883,299.553L222.887,206.907L223.975,222.646L223.975,222.657L225.203,240.492Z" style="fill:rgb(73,61,86);fill-rule:nonzero;"/>
    <g transform="matrix(1,0,0,1,-272.165,-243.176)">
        <path d="M553.102,535.742L485.162,535.312L479.132,535.272L474.832,535.242L469.822,535.212L469.782,535.212C469.056,535.214 468.358,535.501 467.842,536.012L459.382,544.472C459.195,544.657 459.042,544.874 458.932,545.112C458.879,545.18 458.835,545.254 458.802,545.332C458.65,545.685 458.572,546.065 458.572,546.449C458.572,547.978 459.813,549.243 461.342,549.272L549.352,549.272C550.428,549.268 551.411,548.645 551.872,547.672L552.562,546.172L553.982,543.122L555.592,539.682C555.764,539.316 555.853,538.917 555.852,538.512C555.844,537.003 554.611,535.761 553.102,535.742Z" style="fill:rgb(73,61,86);fill-rule:nonzero;"/>
    </g>
    <g transform="matrix(1,0,0,1,-272.165,-243.176)">
        <path d="M552.562,546.17L551.867,547.675C551.406,548.645 550.427,549.268 549.354,549.274L461.34,549.274C459.814,549.246 458.573,547.982 458.573,546.455C458.573,546.07 458.651,545.689 458.804,545.336C458.835,545.257 458.878,545.183 458.932,545.116L552.562,546.17Z" style="fill-opacity:0.17;fill-rule:nonzero;"/>
    </g>
    <path d="M223.975,222.646L223.975,222.657L205.133,299.553L200.883,299.553L222.887,206.907L223.975,222.646Z" style="fill-opacity:0.17;fill-rule:nonzero;"/>
    <g transform="matrix(1,0,0,1,-272.165,-243.176)">
        <path d="M519.262,479.912L492.592,277.002C492.494,276.242 492.098,275.551 491.492,275.082L473.132,252.102L471.482,250.832C470.871,250.37 470.102,250.165 469.342,250.262L466.582,250.632C465.008,250.835 463.879,252.298 464.082,253.872L491.722,464.112L491.722,464.122L493.412,476.982L495.422,492.252L495.422,492.272L498.542,516.032C498.642,516.856 499.1,517.595 499.792,518.052C500.472,518.521 501.321,518.674 502.122,518.472L503.872,518.032C504.542,517.86 505.13,517.456 505.532,516.892L506.312,515.782L506.672,515.262L518.752,481.962C519.176,481.369 519.358,480.635 519.262,479.912Z" style="fill:rgb(73,61,86);fill-rule:nonzero;"/>
    </g>
    <g transform="matrix(1,0,0,1,-272.165,-243.176)">
        <path d="M473.128,252.103L506.675,515.267L506.311,515.782L505.533,516.889C505.132,517.453 504.544,517.858 503.873,518.03L502.12,518.47C501.892,518.527 501.657,518.555 501.421,518.555C499.971,518.555 498.732,517.47 498.541,516.032L464.086,253.876C463.88,252.301 465.005,250.835 466.579,250.628L469.347,250.264C470.105,250.162 470.873,250.368 471.478,250.837L473.128,252.103Z" style="fill-opacity:0.17;fill-rule:nonzero;"/>
    </g>
    <path d="M201.951,16.453L219.754,41.864L240.914,202.865L229.442,225.624L201.951,16.453Z" style="fill:rgb(87,0,196);fill-rule:nonzero;"/>
    <g transform="matrix(1,0,0,1,-272.165,-243.176)">
        <path d="M536.56,483.348L530.009,490.554C529.39,491.074 528.52,491.187 527.789,490.842C526.703,490.457 525.736,489.794 524.985,488.92C520.304,483.606 515.048,478.828 509.314,474.672C508.372,474.007 507.62,473.108 507.134,472.063C506.733,471.378 506.752,470.522 507.184,469.856C507.249,465.914 509.469,463.471 513.785,462.595C514.541,461.807 516.251,462.107 517.783,463.302C524.084,468.218 530.007,473.603 535.5,479.41C536.849,480.836 537.305,482.53 536.56,483.348Z" style="fill:rgb(87,0,196);fill-rule:nonzero;"/>
    </g>
    <g transform="matrix(1,0,0,1,-272.165,-243.176)">
        <path d="M519.723,467.839L514.209,473.903C514.019,474.113 513.56,474.006 513.184,473.664C512.808,473.322 512.658,472.875 512.848,472.666L518.362,466.601C518.552,466.392 519.011,466.499 519.387,466.841C519.763,467.183 519.914,467.63 519.723,467.839Z" style="fill:white;fill-rule:nonzero;"/>
    </g>
    <g transform="matrix(1,0,0,1,-272.165,-243.176)">
        <path d="M525.168,472.789L519.654,478.854C519.464,479.063 519.005,478.956 518.629,478.614C518.253,478.272 518.103,477.826 518.293,477.616L523.807,471.552C523.997,471.342 524.456,471.45 524.832,471.792C525.208,472.133 525.358,472.58 525.168,472.789Z" style="fill:white;fill-rule:nonzero;"/>
    </g>
    <g transform="matrix(1,0,0,1,-272.165,-243.176)">
        <path d="M530.613,477.74L525.099,483.804C524.909,484.014 524.45,483.906 524.074,483.565C523.698,483.223 523.548,482.776 523.738,482.567L529.252,476.502C529.442,476.293 529.901,476.4 530.277,476.742C530.653,477.084 530.803,477.531 530.613,477.74Z" style="fill:white;fill-rule:nonzero;"/>
    </g>
    <g transform="matrix(1,0,0,1,-272.165,-243.176)">
        <path d="M927.835,550.052L927.835,550.059C927.835,550.71 927.299,551.245 926.649,551.245C926.647,551.245 926.646,551.245 926.645,551.245L273.355,551.245C272.702,551.245 272.165,550.708 272.165,550.055C272.165,549.403 272.702,548.865 273.355,548.865L926.645,548.865C926.646,548.865 926.647,548.865 926.648,548.865C927.299,548.865 927.835,549.401 927.835,550.052Z" style="fill:rgb(204,204,204);fill-rule:nonzero;"/>
    </g>
    <g transform="matrix(1,0,0,1,-272.165,-243.176)">
        <path d="M399.283,491.505L401.453,491.505L401.453,489.575L369.153,489.575L369.153,451.815L370.363,451.815C370.343,451.165 370.363,450.515 370.403,449.885L369.153,449.885L369.153,416.735C368.513,416.795 367.873,416.865 367.233,416.925L367.233,449.885L330.223,449.885L330.223,420.625C329.583,420.685 328.953,420.755 328.313,420.815L328.313,449.885L309.883,449.885C310.363,450.535 310.853,451.175 311.353,451.815L328.313,451.815L328.313,489.575L322.943,489.575C322.463,490.235 321.943,490.875 321.383,491.505L328.313,491.505L328.313,521.625L304.943,521.625C305.223,522.275 305.523,522.915 305.843,523.545L328.313,523.545L328.313,548.865L330.223,548.865L330.223,523.545L367.233,523.545L367.233,548.865L369.153,548.865L369.153,523.545L401.453,523.545L401.453,521.625L369.153,521.625C369.159,505.1 382.758,491.506 399.283,491.505L399.283,491.505ZM367.233,521.625L330.223,521.625L330.223,491.505L367.233,491.505L367.233,521.625ZM330.223,489.575L330.223,488.815C330.228,468.516 346.934,451.814 367.233,451.815L367.233,489.575L330.223,489.575Z" style="fill:rgb(230,230,230);fill-rule:nonzero;"/>
    </g>
    <g transform="matrix(1,0,0,1,-272.165,-243.176)">
        <path d="M426.588,493.509C415.571,478.155 394.778,470.22 380.145,475.787C365.512,481.353 362.581,498.313 373.598,513.667C384.614,529.021 417.044,553.172 431.676,547.606C446.309,542.039 437.604,508.863 426.588,493.509ZM426.655,540.734C424.854,543.375 420.435,543.497 416.785,541.007C413.135,538.518 411.636,534.359 413.437,531.718C415.239,529.077 419.658,528.955 423.308,531.444C426.958,533.934 428.457,538.093 426.655,540.734Z" style="fill:rgb(73,61,86);fill-rule:nonzero;"/>
    </g>
    <g transform="matrix(1,0,0,1,-272.165,-243.176)">
        <path d="M414.151,508.527C412.779,509.636 411.407,510.745 410.035,511.854C408.351,513.407 406.358,514.586 404.185,515.312C401.203,516.001 398.085,515.816 395.206,514.778C391.009,513.422 387.328,510.807 384.667,507.289L387.633,507.95C386.06,506.129 384.78,504.073 383.841,501.857C383.146,499.8 383.534,497.713 385.411,497.149C387.56,496.505 391.02,497.954 392.824,496.912C395.944,495.11 390.815,488.4 393.658,486.329C395.315,485.123 398.629,486.317 401.392,487.5C404.829,488.809 408.086,490.549 411.086,492.676C415.994,496.467 418.712,502.441 416.707,505.899C416.022,506.923 415.156,507.814 414.151,508.527Z" style="fill:rgb(87,0,196);fill-rule:nonzero;"/>
    </g>
    <g transform="matrix(1,0,0,1,-272.165,-243.176)">
        <path d="M413.14,520.041C410.741,520.369 407.965,518.525 405.65,516.823L405.06,516.052C404.578,514.575 404.375,513.021 404.462,511.47C404.575,509.996 405.702,508.784 407.165,508.567C408.572,508.381 410.451,508.988 411.38,508.174C413.177,506.6 409.009,502.26 410.915,500.787C411.985,499.96 414.257,501.02 415.237,502.441C416.038,503.766 416.407,505.307 416.295,506.851C416.326,509.118 416.358,511.385 416.39,513.652C416.491,514.991 416.356,516.337 415.99,517.628C415.58,518.909 414.471,519.848 413.14,520.041Z" style="fill:rgb(50,46,65);fill-rule:nonzero;"/>
    </g>
    <g transform="matrix(1,0,0,1,-272.165,-243.176)">
        <path d="M413.742,527.595C410.416,526.613 405.344,523.186 401.025,520.159L399.739,519.041C398.392,517.513 397.251,515.816 396.343,513.993C395.845,512.628 396.487,511.831 398.695,512.49C400.65,513.074 403.728,514.732 404.639,514.405C406.399,513.773 397.919,507.01 399.894,506.541C401.002,506.279 404.906,508.621 407.121,510.624C408.751,512.07 410.098,513.808 411.092,515.747C412.386,518.1 413.681,520.452 414.975,522.804C415.756,523.979 416.301,525.295 416.578,526.679C416.604,527.68 415.76,528.191 413.742,527.595Z" style="fill:rgb(215,165,224);fill-rule:nonzero;"/>
    </g>
    <g transform="matrix(1,0,0,1,-272.165,-243.176)">
        <path d="M366.007,536.606L427.747,544.816C428.403,544.903 428.899,545.469 428.899,546.131C428.899,546.858 428.3,547.457 427.572,547.457C427.561,547.457 427.549,547.457 427.537,547.456L367.319,545.865L366.007,536.606Z" style="fill:rgb(73,61,86);fill-rule:nonzero;"/>
    </g>
    <g transform="matrix(1,0,0,1,-272.165,-243.176)">
        <path d="M348.306,543.703C349.647,541.733 351.215,539.929 352.979,538.327C353.879,537.516 354.828,536.763 355.785,536.04C356.115,535.778 356.458,535.523 356.791,535.271C357.585,534.667 358.379,534.063 359.182,533.457C359.855,532.94 360.538,532.42 361.214,531.913C362.204,531.159 363.319,530.369 364.555,530.543C365.699,530.808 366.666,531.573 367.186,532.626C367.735,533.705 368.133,534.854 368.369,536.042C369.039,538.763 369.7,541.486 370.37,544.207L371.365,545.273C369.945,546.675 368.292,547.817 366.479,548.65C364.938,549.275 363.206,549.244 361.688,548.564C361.36,548.406 361.049,548.213 360.762,547.988C359.508,546.997 358.736,545.44 357.633,544.249C357.4,544.004 357.153,543.773 356.892,543.557C355.351,542.255 353.306,541.707 351.32,542.063C350.182,542.318 349.138,542.886 348.306,543.703Z" style="fill:rgb(204,204,204);fill-rule:nonzero;"/>
    </g>
    <g transform="matrix(1,0,0,1,-272.165,-243.176)">
        <path d="M348.306,543.703C349.647,541.733 351.215,539.929 352.979,538.327C353.879,537.516 354.828,536.763 355.785,536.04C356.115,535.778 356.458,535.523 356.791,535.271C357.585,534.667 358.379,534.063 359.182,533.457C359.442,533.893 359.68,534.342 359.893,534.802C361.892,539.097 362.037,543.894 361.688,548.564C361.36,548.406 361.049,548.213 360.762,547.988C359.508,546.997 358.736,545.44 357.633,544.249C357.4,544.004 357.153,543.773 356.892,543.557C355.351,542.255 353.306,541.707 351.32,542.063C350.182,542.318 349.138,542.886 348.306,543.703Z" style="fill:rgb(87,0,196);fill-rule:nonzero;"/>
    </g>
    <g transform="matrix(1,0,0,1,-272.165,-243.176)">
        <path d="M840.669,358.344C838.367,353.392 842.021,347.863 843.325,342.532C845.759,332.583 838.902,321.813 829.609,318.365C820.315,314.918 809.635,317.799 801.652,323.831C793.826,329.745 788.324,332.53 782.933,340.885C781.126,343.687 779.211,352.386 778.869,355.741C778.527,359.097 780.263,362.942 783.428,363.678C782.15,366.391 784.365,369.518 787.22,368.967C793.278,367.797 804.405,371.013 804.405,371.013C814.779,371.607 825.153,372.201 835.527,372.795C838.186,372.947 840.944,373.085 843.332,371.617C844.669,370.834 845.598,369.505 845.873,367.981C846.48,364.051 842.257,361.759 840.669,358.344Z" style="fill:rgb(185,171,151);fill-rule:nonzero;"/>
    </g>
    <g transform="matrix(1,0,0,1,-272.165,-243.176)">
        <path d="M834.304,536.342C815.873,553.712 796.299,552.664 775.698,534.783C764.332,534.48 755.297,526.261 755.558,516.46C755.818,506.658 765.278,498.931 776.644,499.233L835.25,500.792C846.616,501.094 855.651,509.314 855.39,519.115C855.13,528.916 845.67,536.644 834.304,536.342Z" style="fill:rgb(50,46,65);fill-rule:nonzero;"/>
    </g>
    <g transform="matrix(1,0,0,1,-272.165,-243.176)">
        <path d="M848.503,401.675L846.233,416.785L842.633,440.725L842.023,449.595L837.543,514.605C837.543,514.605 802.923,511.765 793.723,514.605C784.523,517.455 762.163,505.725 762.163,505.725C770.193,497.825 768.023,468.795 768.023,468.795L767.933,396.885L788.243,390.055L794.933,376.885L818.933,376.885L824.933,390.885L835.823,395.865L840.783,398.145L848.503,401.675Z" style="fill:rgb(73,61,86);fill-rule:nonzero;"/>
    </g>
    <path d="M480.718,395.97L469.096,397.868L456.241,353.945L473.394,351.143L480.718,395.97Z" style="fill:rgb(249,221,217);fill-rule:nonzero;"/>
    <g transform="matrix(1,0,0,1,-272.165,-243.176)">
        <path d="M748.265,547.558C769.933,552.885 785.933,546.885 799.111,547.663C806.603,535.023 830.515,518.967 817.468,512.209C810.202,508.445 736.34,499.769 726.643,509.782C701.71,535.531 732.667,616.848 732.667,616.848L749.885,616.626L755.386,608.774L750.955,600.216L755.147,593.22L750.35,586.013L748.265,547.558Z" style="fill:rgb(50,46,65);fill-rule:nonzero;"/>
    </g>
    <path d="M587.819,395.97L599.44,397.868L612.295,353.945L595.143,351.143L587.819,395.97Z" style="fill:rgb(249,221,217);fill-rule:nonzero;"/>
    <g transform="matrix(1,0,0,1,-272.165,-243.176)">
        <path d="M864.601,525.558C852.61,543.143 833.481,546.02 813.755,547.663C806.264,535.023 782.352,518.967 795.399,512.209C802.665,508.445 876.527,477.769 886.223,487.782C911.157,513.531 880.2,616.848 880.2,616.848L862.982,616.626L857.481,608.774L861.912,600.216L857.72,593.22L862.517,586.013L864.601,525.558Z" style="fill:rgb(50,46,65);fill-rule:nonzero;"/>
    </g>
    <g transform="matrix(1,0,0,1,-272.165,-243.176)">
        <path d="M861.002,622.827L878.235,626.356L876.289,633.624L889.433,649.079C890.156,649.929 890.553,651.009 890.553,652.124C890.553,654.702 888.432,656.823 885.854,656.823C885.443,656.823 885.034,656.77 884.638,656.663L864.444,651.256L862.888,643.136L859.604,649.96L851.99,647.922L861.002,622.827Z" style="fill:rgb(50,46,65);fill-rule:nonzero;"/>
    </g>
    <g transform="matrix(1,0,0,1,-272.165,-243.176)">
        <path d="M760.876,647.922L753.262,649.96L749.979,643.136L748.423,651.256L728.229,656.663C727.832,656.77 727.423,656.823 727.013,656.823C724.435,656.823 722.313,654.702 722.313,652.124C722.313,651.009 722.711,649.929 723.433,649.079L736.578,633.624L734.632,626.356L751.865,622.827L760.876,647.922Z" style="fill:rgb(50,46,65);fill-rule:nonzero;"/>
    </g>
    <circle cx="535.76" cy="106.663" r="20.292" style="fill:rgb(249,221,217);"/>
    <g transform="matrix(1,0,0,1,-272.165,-243.176)">
        <path d="M796.331,343.474C790.971,343.482 785.737,341.831 781.352,338.748L781.206,338.646C781.206,327.818 790.116,318.908 800.944,318.908L809.001,318.908C819.734,318.92 828.56,327.755 828.56,338.489C828.56,338.51 828.56,338.532 828.56,338.553C828.525,340.982 826.534,342.969 824.106,342.999L796.794,343.47C796.64,343.472 796.485,343.474 796.331,343.474Z" style="fill:rgb(185,171,151);fill-rule:nonzero;"/>
    </g>
    <g transform="matrix(1,0,0,1,-272.165,-243.176)">
        <path d="M843.375,569.795L782.274,569.795C778.888,569.791 776.102,567.005 776.098,563.618L776.098,507.714C776.102,504.327 778.888,501.542 782.274,501.538L843.375,501.538C846.762,501.542 849.547,504.327 849.551,507.714L849.551,563.618C849.547,567.005 846.762,569.791 843.375,569.795Z" style="fill:rgb(230,230,230);fill-rule:nonzero;"/>
    </g>
    <g transform="matrix(1,0,0,1,-272.165,-243.176)">
        <path d="M839.08,564.647L786.569,564.647C783.562,564.644 781.089,562.17 781.085,559.163L781.085,512.169C781.089,509.162 783.562,506.689 786.569,506.686L839.08,506.686C842.087,506.689 844.56,509.162 844.564,512.169L844.564,559.163C844.561,562.17 842.087,564.644 839.08,564.647Z" style="fill:white;fill-rule:nonzero;"/>
    </g>
    <g transform="matrix(1,0,0,1,-272.165,-243.176)">
        <path d="M833.842,520.367L791.808,520.367C791.055,520.367 790.437,519.748 790.437,518.996C790.437,518.244 791.055,517.625 791.807,517.625L833.842,517.625C834.594,517.625 835.212,518.244 835.212,518.996C835.212,519.748 834.594,520.367 833.842,520.367Z" style="fill:rgb(87,0,196);fill-rule:nonzero;"/>
    </g>
    <g transform="matrix(1,0,0,1,-272.165,-243.176)">
        <path d="M833.842,525.784L791.808,525.784C791.055,525.784 790.437,525.165 790.437,524.413C790.437,523.661 791.055,523.042 791.808,523.042L833.842,523.042C834.594,523.042 835.213,523.661 835.213,524.413C835.213,525.165 834.594,525.784 833.842,525.784Z" style="fill:rgb(87,0,196);fill-rule:nonzero;"/>
    </g>
    <g transform="matrix(1,0,0,1,-272.165,-243.176)">
        <path d="M810.028,531.201L791.808,531.201C791.055,531.201 790.437,530.582 790.437,529.83C790.437,529.078 791.055,528.459 791.808,528.459L810.028,528.459C810.78,528.459 811.399,529.078 811.399,529.83C811.399,530.582 810.78,531.201 810.028,531.201Z" style="fill:rgb(87,0,196);fill-rule:nonzero;"/>
    </g>
    <g transform="matrix(1,0,0,1,-272.165,-243.176)">
        <path d="M833.842,542.546L791.808,542.546C791.055,542.546 790.437,541.928 790.437,541.176C790.437,540.423 791.055,539.805 791.807,539.805L833.842,539.805C834.594,539.805 835.212,540.423 835.212,541.176C835.212,541.928 834.594,542.546 833.842,542.546Z" style="fill:rgb(228,228,228);fill-rule:nonzero;"/>
    </g>
    <g transform="matrix(1,0,0,1,-272.165,-243.176)">
        <path d="M833.842,547.963L791.808,547.963C791.055,547.963 790.437,547.345 790.437,546.592C790.437,545.84 791.055,545.221 791.808,545.221L833.842,545.221C834.594,545.221 835.213,545.84 835.213,546.592C835.213,547.345 834.594,547.963 833.842,547.963Z" style="fill:rgb(228,228,228);fill-rule:nonzero;"/>
    </g>
    <g transform="matrix(1,0,0,1,-272.165,-243.176)">
        <path d="M810.028,553.38L791.808,553.38C791.055,553.38 790.437,552.762 790.437,552.009C790.437,551.257 791.055,550.638 791.808,550.638L810.028,550.638C810.78,550.638 811.399,551.257 811.399,552.009C811.399,552.762 810.78,553.38 810.028,553.38Z" style="fill:rgb(228,228,228);fill-rule:nonzero;"/>
    </g>
    <g transform="matrix(1,0,0,1,-272.165,-243.176)">
        <path d="M852.933,442.885L834.552,443.036L833.202,475.751L818.267,494.035C813.476,494.842 809.932,499.032 809.932,503.891C809.932,509.374 814.444,513.885 819.927,513.885C824.85,513.885 829.077,510.247 829.81,505.378L850.383,476.858L852.933,442.885Z" style="fill:rgb(249,221,217);fill-rule:nonzero;"/>
    </g>
    <g transform="matrix(1,0,0,1,-272.165,-243.176)">
        <path d="M758.812,444.37L739.97,435.562L719.395,461.034L696.508,466.823C695.103,466.106 693.547,465.733 691.969,465.733C686.487,465.733 681.975,470.244 681.975,475.727C681.975,481.21 686.487,485.722 691.969,485.722C694.612,485.722 697.149,484.674 699.021,482.809L732.536,472.159L758.812,444.37Z" style="fill:rgb(249,221,217);fill-rule:nonzero;"/>
    </g>
    <g transform="matrix(1,0,0,1,-272.165,-243.176)">
        <path d="M818.078,368.565L825.103,359.8C825.862,359.032 826.356,358.042 826.513,356.974C826.55,355.903 825.54,354.756 824.522,355.092C823.577,355.403 818.132,341.761 817.137,341.764C816.106,341.767 815.77,340.392 815.756,339.361C815.707,335.453 818.883,339.649 819.933,335.885C820.983,332.121 825.077,335.358 828.604,333.676C832.132,331.995 836.925,332.759 839.106,336.002C840.723,338.406 840.663,341.53 840.449,344.419C839.951,351.125 838.942,357.782 837.431,364.334C837.06,365.943 836.507,367.742 835.024,368.468C834.208,368.792 833.328,368.923 832.453,368.853L821.636,368.799" style="fill:rgb(185,171,151);fill-rule:nonzero;"/>
    </g>
    <circle cx="562.768" cy="77.709" r="10" style="fill:rgb(185,171,151);"/>
    <g transform="matrix(1,0,0,1,-272.165,-243.176)">
        <path d="M857.423,443.075C856.343,444.955 854.043,445.705 851.943,446.285C849.103,447.075 848.273,447.875 845.433,448.665C844.303,448.985 843.163,449.305 842.023,449.595C840.152,450.099 838.252,450.49 836.333,450.765C834.723,450.995 832.823,450.995 831.773,449.745C831.077,448.672 830.796,447.381 830.983,446.115C831.393,430.755 831.807,415.395 832.223,400.035L833.093,400.335C833.485,400.077 833.892,399.843 834.313,399.635C836.315,398.616 838.537,398.104 840.783,398.145C842.069,398.156 843.346,398.354 844.573,398.735C848.429,399.959 851.555,402.822 853.113,406.555C854.111,409.341 854.585,412.287 854.513,415.245C854.523,415.695 854.523,416.145 854.533,416.595C854.593,420.435 852.643,424.275 852.703,428.115C852.658,429.196 852.807,430.277 853.143,431.305C853.543,432.325 854.323,433.175 854.623,434.235C854.923,435.285 854.433,436.725 853.343,436.805C853.491,436.79 853.64,436.782 853.789,436.782C856.091,436.782 857.985,438.676 857.985,440.978C857.985,441.714 857.791,442.438 857.423,443.075L857.423,443.075Z" style="fill:rgb(73,61,86);fill-rule:nonzero;"/>
    </g>
    <g transform="matrix(1,0,0,1,-272.165,-243.176)">
        <path d="M768.017,396.972C775.163,397.402 780.811,403.4 780.811,410.559C780.811,411.687 780.671,412.811 780.393,413.905C779.558,417.2 777.533,420.047 775.549,422.809L768.828,432.163C768.146,433.002 767.621,433.957 767.279,434.982C766.996,436.043 767.108,437.193 766.721,438.22C766.334,439.247 765.086,440.109 764.16,439.519C765.44,440.274 766.229,441.653 766.229,443.139C766.229,444.807 765.236,446.323 763.708,446.99C761.714,447.86 759.423,447.083 757.391,446.306L749.137,443.147C746.202,442.099 743.341,440.853 740.576,439.415C739.147,438.631 737.622,437.502 737.52,435.875C737.441,434.609 738.512,433.636 739.049,432.487C745.771,418.095 755.656,406.643 767.933,396.885L768.017,396.972Z" style="fill:rgb(73,61,86);fill-rule:nonzero;"/>
    </g>
    <circle cx="511.721" cy="328.071" r="14.189" style="fill:white;"/>
    <g transform="matrix(1,0,0,1,-272.165,-243.176)">
        <path d="M783.886,585.61C776.007,585.61 769.524,579.126 769.524,571.247C769.524,563.369 776.007,556.885 783.886,556.885C791.765,556.885 798.248,563.369 798.248,571.247C798.239,579.123 791.762,585.601 783.886,585.61Z" style="fill:rgb(87,0,196);fill-rule:nonzero;"/>
    </g>
    <g transform="matrix(1,0,0,1,-272.165,-243.176)">
        <path d="M782.824,576.918C782.793,576.918 782.763,576.917 782.733,576.916C782.192,576.89 781.69,576.628 781.357,576.201L778.986,573.153C778.733,572.827 778.595,572.425 778.595,572.012C778.595,571.44 778.86,570.899 779.312,570.547L779.397,570.481C779.723,570.227 780.124,570.089 780.537,570.089C781.11,570.089 781.651,570.354 782.003,570.806C782.259,571.136 782.654,571.328 783.071,571.328C783.442,571.328 783.798,571.176 784.053,570.906L788.868,565.823C789.569,565.085 790.753,565.053 791.493,565.752L791.572,565.827C791.942,566.178 792.151,566.665 792.151,567.175C792.151,567.65 791.969,568.107 791.642,568.452L784.171,576.338C783.821,576.708 783.333,576.918 782.824,576.918Z" style="fill:white;fill-rule:nonzero;"/>
    </g>
    <g transform="matrix(1,0,0,1,-272.165,-243.176)">
        <path d="M682.716,492.915L647.383,449.651C644.886,446.587 645.348,442.013 648.406,439.509L657.835,431.808C660.9,429.311 665.474,429.773 667.978,432.832L703.311,476.095C705.808,479.159 705.346,483.734 702.288,486.237L692.859,493.938C689.794,496.435 685.22,495.973 682.716,492.915Z" style="fill:rgb(73,61,86);fill-rule:nonzero;"/>
    </g>
    <g transform="matrix(1,0,0,1,-272.165,-243.176)">
        <path d="M701.543,476.925L692.083,465.345L687.153,459.315L666.203,433.665C665.468,432.763 664.363,432.238 663.199,432.238C662.304,432.238 661.436,432.548 660.743,433.115L651.313,440.815C650.411,441.551 649.886,442.655 649.886,443.82C649.886,444.715 650.196,445.583 650.763,446.275L650.783,446.305L668.473,467.965L686.093,489.545C687.445,491.192 689.91,491.44 691.563,490.095L700.983,482.395C702.632,481.045 702.884,478.581 701.543,476.925Z" style="fill:rgb(87,0,196);fill-rule:nonzero;"/>
    </g>
    <g transform="matrix(1,0,0,1,-272.165,-243.176)">
        <path d="M673.933,456.885C673.937,461.224 671.916,465.325 668.473,467.965L650.783,446.305C653.326,444.1 656.581,442.885 659.947,442.885C667.62,442.885 673.933,449.199 673.933,456.872C673.933,456.876 673.933,456.881 673.933,456.885Z" style="fill:rgb(73,61,86);fill-rule:nonzero;"/>
    </g>
    <g transform="matrix(1,0,0,1,-272.165,-243.176)">
        <path d="M676.546,449.687C677.024,451.409 675.787,453.473 673.061,455.502C672.516,455.908 671.741,456.1 671.287,456.687C669.342,459.388 666.038,460.781 662.746,460.289C662.555,460.168 662.366,460.042 662.178,459.913C662.213,459.904 662.248,459.894 662.283,459.885C665.511,459.027 668.6,457.711 671.455,455.978C671.913,455.688 672.623,455.578 672.754,455.088C673.803,451.155 676.156,450.871 676.05,449.825C675.895,448.296 673.619,447.321 670.511,447.017C670.203,446.987 669.888,446.964 669.567,446.948C669.439,446.767 669.308,446.59 669.171,446.417C669.649,446.432 670.112,446.461 670.56,446.504C673.942,446.835 676.067,447.966 676.546,449.687Z" style="fill:white;fill-rule:nonzero;"/>
    </g>
    <circle cx="389.702" cy="205.622" r="3.456" style="fill:white;"/>
    <circle cx="407.88" cy="227.568" r="0.908" style="fill:white;"/>
    <circle cx="422.88" cy="231.568" r="0.908" style="fill:white;"/>
    <circle cx="389.88" cy="194.568" r="0.908" style="fill:white;"/>
    <circle cx="415.88" cy="237.568" r="0.908" style="fill:white;"/>
    <circle cx="394.049" cy="209.369" r="0.355" style="fill:rgb(240,240,240);"/>
    <circle cx="400.049" cy="216.369" r="0.355" style="fill:rgb(240,240,240);"/>
    <circle cx="382.049" cy="204.369" r="0.355" style="fill:rgb(240,240,240);"/>
    <g transform="matrix(1,0,0,1,-272.165,-243.176)">
        <path d="M692.083,465.345C691.327,466.319 690.161,466.889 688.928,466.889C686.737,466.889 684.933,465.086 684.933,462.894C684.933,461.379 685.796,459.989 687.153,459.315L692.083,465.345Z" style="fill:rgb(215,165,224);fill-rule:nonzero;"/>
    </g>
</svg>
